; NON-PLATED HOLES START AT T1
; THROUGH (PLATED) HOLES START AT T100
M48
INCH
T1C0.137795
T2C0.044000
T100C0.052972
T101C0.031497
T102C0.039370
T103C0.041333
T104C0.035000
T105C0.053000
T106C0.040000
T107C0.038194
T108C0.088356
T109C0.042000
T110C0.100000
T111C0.047244
T112C0.041361
%
T1
X005602Y027992
X056482Y028048
X000863Y000992
X002626Y024833
X005227Y008992
X032274Y012498
X035102Y027992
X002638Y012498
X032311Y024858
X060103Y000992
T2
X059473Y016911
X059473Y011161
X057505Y013129
X060457Y015097
X060457Y020847
X059473Y015097
X060457Y011161
X060457Y016911
X057505Y018879
X059473Y020847
T100
X059473Y013129
X057505Y019863
X057505Y014113
X059473Y018879
T101
X046602Y008133
X044852Y017687
X052852Y017687
X050852Y009117
X055241Y008133
X042352Y008133
X042352Y009117
X055241Y009117
X046602Y009117
X040602Y017687
X040602Y018672
X050852Y008133
X048852Y018672
X044852Y018672
X048852Y017687
X052852Y018672
T102
X001672Y028270
X002672Y026270
X003672Y028270
T103
X012953Y002188
X011953Y002189
T104
X032352Y000683
X036315Y002794
X044852Y020144
X050102Y003242
X018852Y023742
X047624Y003242
X045852Y023144
X048852Y023144
X051874Y005801
X007852Y024742
X050852Y020144
X018852Y024742
X044352Y007367
X047624Y005801
X017852Y024742
X008852Y024742
X043374Y005801
X026852Y002742
X054227Y018922
X045852Y003242
X041852Y016922
X048852Y007367
X015852Y024742
X056263Y005801
X032352Y004766
X014852Y024742
X009852Y024742
X054491Y005801
X034544Y005353
X013852Y024742
X034544Y002794
X030581Y004766
X048852Y020144
X036315Y005353
X050227Y016922
X010852Y024742
X043852Y020144
X053102Y009367
X032352Y003242
X046102Y018922
X041852Y018922
X053102Y007367
X026852Y005301
X030581Y007326
X046852Y020144
X046102Y016922
X004852Y024742
X056263Y003242
X048852Y009367
X018852Y020742
X019852Y024742
X016852Y024742
X045852Y005801
X041602Y005801
X011852Y024742
X050227Y018922
X054227Y016922
X043852Y023144
X049852Y020144
X030581Y000683
X050852Y023144
X044852Y023144
X030581Y003242
X041602Y003242
X028624Y005301
X047852Y023144
X046852Y023144
X054491Y003242
X043374Y003242
X051874Y003242
X006852Y024742
X042852Y023144
X005852Y024742
X032352Y007326
X045852Y020144
X012852Y024742
X050102Y005801
X057491Y009367
X057491Y007367
X047852Y020144
X049852Y023144
X028624Y002742
X042852Y020144
X044352Y009367
T105
X057505Y017895
X057505Y015097
X057505Y020847
X057505Y012145
X057505Y011161
X057505Y016911
T106
X039477Y027492
X050102Y027492
X048102Y027492
X054199Y027492
X041477Y027492
X052199Y027492
X043579Y027492
X045579Y027492
T107
X023602Y027992
X037602Y022992
X024602Y008992
X036602Y015992
X036602Y013992
X029602Y027992
X034602Y008992
X037602Y014992
X036602Y021992
X012002Y027992
X036602Y023992
X033602Y008992
X018602Y027992
X026602Y027992
X032602Y027992
X011002Y027992
X036602Y020992
X029602Y008992
X037602Y018992
X037602Y021992
X036602Y014992
X014002Y027992
X035602Y008992
X036602Y016992
X036602Y022992
X028602Y008992
X019602Y008992
X015002Y027992
X027602Y027992
X037602Y020992
X037602Y023992
X037602Y011992
X036602Y019992
X011602Y008992
X036602Y012992
X021602Y027992
X031602Y027992
X012602Y008992
X010002Y027992
X022602Y027992
X030602Y027992
X036602Y026992
X037602Y017992
X024602Y027992
X036602Y025992
X037602Y027992
X023602Y008992
X022602Y008992
X009002Y027992
X026602Y008992
X025602Y008992
X037602Y024992
X033602Y027992
X037602Y013992
X036602Y018992
X036602Y024992
X032602Y008992
X037602Y019992
X017602Y027992
X037602Y016992
X020602Y008992
X037602Y025992
X019602Y027992
X036602Y010992
X008002Y027992
X037602Y026992
X031602Y008992
X020602Y027992
X036602Y027992
X017602Y008992
X036602Y011992
X037602Y012992
X010602Y008992
X036602Y017992
X013002Y027992
X015602Y008992
X037602Y010992
X016002Y027992
X014602Y008992
X013602Y008992
X028602Y027992
X007002Y027992
X037602Y015992
X021602Y008992
X016602Y008992
X030602Y008992
T108
X014894Y005141
X011011Y005141
T109
X055386Y024171
X059425Y022777
X056445Y022777
X055386Y021191
T110
X059481Y024070
X057581Y025270
X059481Y026470
T111
X005689Y001691
X005689Y006613
X003721Y006613
X003721Y001691
X019602Y006742
X021571Y006742
X021571Y001821
X019602Y001821
T112
X013953Y002189
T00
M30
