G04 MADE WITH FRITZING*
G04 WWW.FRITZING.ORG*
G04 DOUBLE SIDED*
G04 HOLES PLATED*
G04 CONTOUR ON CENTER OF CONTOUR VECTOR*
%ASAXBY*%
%FSLAX23Y23*%
%MOIN*%
%OFA0B0*%
%SFA1.0B1.0*%
%ADD10C,0.082000*%
%ADD11C,0.074000*%
%ADD12C,0.075000*%
%ADD13C,0.074667*%
%ADD14C,0.074695*%
%ADD15C,0.124033*%
%ADD16C,0.062992*%
%ADD17C,0.080000*%
%ADD18C,0.140000*%
%ADD19C,0.087695*%
%ADD20C,0.087722*%
%ADD21C,0.085000*%
%ADD22C,0.072917*%
%ADD23R,0.082000X0.082000*%
%ADD24R,0.075000X0.075000*%
%ADD25R,0.062992X0.062992*%
%ADD26R,0.080000X0.080000*%
%ADD27C,0.024000*%
%ADD28C,0.048000*%
%ADD29C,0.032000*%
%ADD30R,0.001000X0.001000*%
%LNCOPPER0*%
G90*
G70*
G54D10*
X5539Y2417D03*
X5539Y2119D03*
X5645Y2278D03*
X5943Y2278D03*
G54D11*
X367Y2827D03*
X267Y2627D03*
X167Y2827D03*
G54D12*
X1885Y2374D03*
X1885Y2074D03*
G54D13*
X1195Y219D03*
X1295Y219D03*
G54D14*
X1395Y219D03*
G54D15*
X1101Y514D03*
X1489Y514D03*
G54D12*
X4285Y2014D03*
X4285Y2314D03*
X4385Y2014D03*
X4385Y2314D03*
X4485Y2014D03*
X4485Y2314D03*
X4585Y2014D03*
X4585Y2314D03*
X4685Y2014D03*
X4685Y2314D03*
X4785Y2014D03*
X4785Y2314D03*
X4885Y2014D03*
X4885Y2314D03*
X4985Y2014D03*
X4985Y2314D03*
X5085Y2014D03*
X5085Y2314D03*
X5423Y1892D03*
X5423Y1692D03*
X5749Y937D03*
X5749Y737D03*
X5023Y1892D03*
X5023Y1692D03*
X5310Y937D03*
X5310Y737D03*
X4610Y1892D03*
X4610Y1692D03*
X4885Y937D03*
X4885Y737D03*
X4185Y1892D03*
X4185Y1692D03*
X4435Y937D03*
X4435Y737D03*
G54D16*
X5285Y1867D03*
X5285Y1769D03*
X5524Y912D03*
X5524Y813D03*
X4885Y1867D03*
X4885Y1769D03*
X5085Y912D03*
X5085Y813D03*
X4485Y1867D03*
X4485Y1769D03*
X4660Y912D03*
X4660Y813D03*
X4060Y1867D03*
X4060Y1769D03*
X4235Y912D03*
X4235Y813D03*
G54D17*
X4558Y2749D03*
X4358Y2749D03*
X5010Y2749D03*
X4810Y2749D03*
X5420Y2749D03*
X5220Y2749D03*
X4148Y2749D03*
X3948Y2749D03*
G54D18*
X5948Y2407D03*
X5948Y2647D03*
X5758Y2527D03*
G54D12*
X485Y2474D03*
X585Y2474D03*
X685Y2474D03*
X785Y2474D03*
X885Y2474D03*
X985Y2474D03*
X1085Y2474D03*
X1185Y2474D03*
X1285Y2474D03*
X1385Y2474D03*
X1485Y2474D03*
X1585Y2474D03*
X1685Y2474D03*
X1785Y2474D03*
X1885Y2474D03*
X1985Y2474D03*
G54D19*
X5947Y1313D03*
G54D20*
X5751Y1116D03*
X5751Y1215D03*
G54D19*
X5751Y1411D03*
G54D20*
X5751Y1510D03*
G54D19*
X5947Y1888D03*
G54D20*
X5751Y1691D03*
X5751Y1790D03*
G54D19*
X5751Y1986D03*
G54D20*
X5751Y2085D03*
G54D12*
X3058Y477D03*
X3058Y733D03*
X3235Y477D03*
X3235Y733D03*
X5626Y580D03*
X5626Y324D03*
X5449Y580D03*
X5449Y324D03*
X5187Y580D03*
X5187Y324D03*
X5010Y580D03*
X5010Y324D03*
X4762Y580D03*
X4762Y324D03*
X4585Y580D03*
X4585Y324D03*
X3058Y68D03*
X3058Y324D03*
X3235Y68D03*
X3235Y324D03*
X2862Y530D03*
X2862Y274D03*
X2685Y530D03*
X2685Y274D03*
X4337Y580D03*
X4337Y324D03*
X4160Y580D03*
X4160Y324D03*
X3454Y279D03*
X3454Y535D03*
X3632Y279D03*
X3632Y535D03*
G54D21*
X1960Y182D03*
X2157Y182D03*
X2157Y674D03*
X1960Y674D03*
X372Y169D03*
X569Y169D03*
X569Y661D03*
X372Y661D03*
G54D22*
X2960Y899D03*
X1360Y899D03*
X3060Y899D03*
X3160Y899D03*
X3260Y899D03*
X3360Y899D03*
X3660Y2299D03*
X3460Y899D03*
X3560Y899D03*
X1400Y2799D03*
X1960Y899D03*
X2060Y899D03*
X2160Y899D03*
X2260Y899D03*
X3660Y1499D03*
X2360Y899D03*
X2460Y899D03*
X2560Y899D03*
X2660Y899D03*
X2160Y2799D03*
X3660Y2699D03*
X3660Y1899D03*
X3660Y1099D03*
X1000Y2799D03*
X1760Y899D03*
X1760Y2799D03*
X3660Y2499D03*
X3660Y2099D03*
X3660Y1699D03*
X3360Y2799D03*
X3660Y1299D03*
X3260Y2799D03*
X3160Y2799D03*
X3060Y2799D03*
X2960Y2799D03*
X2860Y2799D03*
X2760Y2799D03*
X2660Y2799D03*
X800Y2799D03*
X1200Y2799D03*
X1600Y2799D03*
X1160Y899D03*
X1560Y899D03*
X2360Y2799D03*
X1960Y2799D03*
X3660Y2799D03*
X3660Y2599D03*
X3660Y2399D03*
X3660Y2199D03*
X3660Y1999D03*
X3660Y1799D03*
X3660Y1599D03*
X3660Y1399D03*
X3660Y1199D03*
X700Y2799D03*
X900Y2799D03*
X1100Y2799D03*
X1300Y2799D03*
X1500Y2799D03*
X1060Y899D03*
X1260Y899D03*
X1460Y899D03*
X1660Y899D03*
X2460Y2799D03*
X2260Y2799D03*
X2060Y2799D03*
X1860Y2799D03*
X3760Y2799D03*
X3760Y2699D03*
X3760Y2599D03*
X3760Y2499D03*
X3760Y2399D03*
X3760Y2299D03*
X3760Y2199D03*
X3760Y2099D03*
X3760Y1999D03*
X3760Y1899D03*
X3760Y1799D03*
X3760Y1699D03*
X3760Y1599D03*
X3760Y1499D03*
X3760Y1399D03*
X3760Y1299D03*
X3760Y1199D03*
X3760Y1099D03*
X2860Y899D03*
G54D23*
X5539Y2418D03*
X5644Y2278D03*
G54D24*
X4285Y2014D03*
G54D25*
X5285Y1867D03*
X5524Y912D03*
X4885Y1867D03*
X5085Y912D03*
X4485Y1867D03*
X4660Y912D03*
X4060Y1867D03*
X4235Y912D03*
G54D26*
X4558Y2749D03*
X5010Y2749D03*
X5420Y2749D03*
X4148Y2749D03*
G54D24*
X485Y2475D03*
G54D27*
X5539Y2173D02*
X5539Y2151D01*
G54D28*
D02*
X5300Y2310D02*
X5602Y2282D01*
G54D27*
D02*
X4146Y1102D02*
X4224Y936D01*
D02*
X4148Y1363D02*
X4146Y1102D01*
D02*
X3786Y1584D02*
X4148Y1363D01*
D02*
X4213Y1395D02*
X3785Y1682D01*
D02*
X4628Y1035D02*
X4243Y1039D01*
D02*
X4243Y1039D02*
X4213Y1395D01*
D02*
X4653Y938D02*
X4628Y1035D01*
D02*
X5401Y1873D02*
X5305Y1787D01*
D02*
X4060Y2007D02*
X4060Y1894D01*
D02*
X4485Y1986D02*
X4485Y1894D01*
D02*
X4787Y1972D02*
X4867Y1887D01*
D02*
X4787Y1986D02*
X4787Y1972D01*
D02*
X4006Y1295D02*
X3788Y1387D01*
D02*
X4054Y506D02*
X4006Y1295D01*
D02*
X4954Y498D02*
X4054Y506D01*
D02*
X3031Y484D02*
X2890Y523D01*
D02*
X397Y2661D02*
X373Y2797D01*
D02*
X535Y2623D02*
X397Y2661D01*
D02*
X576Y2501D02*
X535Y2623D01*
D02*
X5398Y658D02*
X4102Y672D01*
D02*
X4074Y1335D02*
X3787Y1485D01*
D02*
X4102Y672D02*
X4074Y1335D01*
D02*
X5433Y604D02*
X5398Y658D01*
D02*
X2798Y724D02*
X2700Y555D01*
D02*
X2850Y871D02*
X2798Y724D01*
G54D29*
D02*
X2058Y702D02*
X1976Y867D01*
D02*
X2050Y387D02*
X2058Y702D01*
D02*
X1340Y382D02*
X2050Y387D01*
D02*
X1305Y255D02*
X1340Y382D01*
G54D27*
D02*
X3995Y443D02*
X3943Y1247D01*
D02*
X3943Y1247D02*
X3789Y1291D01*
D02*
X4509Y428D02*
X3995Y443D01*
D02*
X4568Y347D02*
X4509Y428D01*
D02*
X3354Y369D02*
X3262Y334D01*
D02*
X3528Y372D02*
X3354Y369D01*
D02*
X3546Y538D02*
X3528Y372D01*
D02*
X3374Y872D02*
X3546Y538D01*
G54D29*
D02*
X735Y351D02*
X562Y408D01*
D02*
X562Y408D02*
X568Y621D01*
D02*
X731Y79D02*
X735Y351D01*
D02*
X2320Y84D02*
X731Y79D01*
D02*
X2335Y724D02*
X2320Y84D01*
D02*
X2274Y866D02*
X2335Y724D01*
G54D27*
D02*
X2160Y869D02*
X2158Y709D01*
D02*
X4350Y198D02*
X4340Y296D01*
D02*
X4350Y198D02*
X3773Y184D01*
D02*
X3149Y248D02*
X3080Y306D01*
D02*
X3372Y184D02*
X3311Y237D01*
D02*
X3311Y237D02*
X3149Y248D01*
D02*
X3773Y184D02*
X3372Y184D01*
D02*
X4761Y198D02*
X4350Y198D01*
D02*
X4762Y296D02*
X4761Y198D01*
D02*
X4761Y198D02*
X5161Y198D01*
D02*
X3773Y900D02*
X3773Y184D01*
D02*
X3675Y1073D02*
X3773Y900D01*
D02*
X5161Y198D02*
X5182Y296D01*
D02*
X5161Y198D02*
X5509Y198D01*
D02*
X5509Y198D02*
X5607Y303D01*
D02*
X3428Y454D02*
X3446Y508D01*
D02*
X3332Y454D02*
X3428Y454D01*
D02*
X3254Y398D02*
X3332Y454D01*
D02*
X3069Y402D02*
X3254Y398D01*
D02*
X3069Y402D02*
X3062Y353D01*
D02*
X3062Y448D02*
X3069Y402D01*
D02*
X3473Y872D02*
X3619Y561D01*
G54D29*
D02*
X1648Y1059D02*
X1658Y935D01*
D02*
X411Y1056D02*
X1648Y1059D01*
D02*
X376Y701D02*
X411Y1056D01*
G54D27*
D02*
X3161Y814D02*
X3216Y754D01*
D02*
X2979Y814D02*
X3161Y814D01*
D02*
X2967Y870D02*
X2979Y814D01*
D02*
X1613Y674D02*
X1926Y674D01*
D02*
X1654Y870D02*
X1613Y674D01*
G54D29*
D02*
X5882Y1429D02*
X5926Y1351D01*
D02*
X5871Y1597D02*
X5882Y1429D01*
D02*
X5887Y1850D02*
X5871Y1597D01*
D02*
X5911Y1865D02*
X5887Y1850D01*
G54D27*
D02*
X1885Y2403D02*
X1885Y2446D01*
D02*
X3885Y1174D02*
X3934Y336D01*
D02*
X3934Y336D02*
X4132Y326D01*
D02*
X3790Y1193D02*
X3885Y1174D01*
G54D29*
D02*
X522Y2075D02*
X1851Y2074D01*
D02*
X587Y2187D02*
X585Y2440D01*
D02*
X522Y2075D02*
X587Y2187D01*
D02*
X96Y2069D02*
X522Y2075D01*
D02*
X85Y474D02*
X96Y2069D01*
D02*
X411Y477D02*
X85Y474D01*
D02*
X510Y754D02*
X411Y477D01*
D02*
X932Y772D02*
X510Y754D01*
D02*
X930Y144D02*
X1366Y140D01*
D02*
X1366Y140D02*
X1382Y184D01*
D02*
X932Y772D02*
X930Y144D01*
D02*
X1420Y772D02*
X932Y772D01*
D02*
X1450Y865D02*
X1420Y772D01*
G54D27*
D02*
X137Y2824D02*
X107Y2821D01*
D02*
X99Y2342D02*
X491Y2341D01*
D02*
X491Y2341D02*
X486Y2446D01*
D02*
X107Y2821D02*
X99Y2342D01*
D02*
X1284Y645D02*
X1202Y250D01*
D02*
X1502Y647D02*
X1284Y645D01*
D02*
X1553Y870D02*
X1502Y647D01*
D02*
X4357Y2014D02*
X4314Y2014D01*
D02*
X4557Y2014D02*
X4514Y2014D01*
D02*
X4757Y2014D02*
X4714Y2014D01*
D02*
X4957Y2014D02*
X4914Y2014D01*
G54D28*
D02*
X4346Y2314D02*
X4325Y2314D01*
D02*
X4546Y2314D02*
X4525Y2314D01*
D02*
X4746Y2314D02*
X4725Y2314D01*
D02*
X4946Y2314D02*
X4925Y2314D01*
G54D29*
D02*
X5599Y1607D02*
X5607Y2173D01*
D02*
X5871Y1597D02*
X5599Y1607D01*
G54D27*
D02*
X4954Y498D02*
X5001Y351D01*
G54D29*
D02*
X3961Y2498D02*
X3796Y2499D01*
D02*
X4165Y2237D02*
X3961Y2498D01*
D02*
X4957Y2233D02*
X4165Y2237D01*
D02*
X4981Y2048D02*
X4957Y2233D01*
D02*
X3924Y2398D02*
X4125Y2169D01*
D02*
X4125Y2169D02*
X4783Y2169D01*
D02*
X3796Y2399D02*
X3924Y2398D01*
D02*
X4783Y2169D02*
X4785Y2049D01*
D02*
X3887Y2298D02*
X4088Y2096D01*
D02*
X4088Y2096D02*
X4589Y2096D01*
D02*
X3796Y2299D02*
X3887Y2298D01*
D02*
X4589Y2096D02*
X4587Y2049D01*
D02*
X4060Y2007D02*
X4251Y2013D01*
D02*
X3861Y2198D02*
X4060Y2007D01*
D02*
X3796Y2199D02*
X3861Y2198D01*
G54D27*
D02*
X4079Y1788D02*
X4165Y1872D01*
D02*
X4258Y827D02*
X4411Y922D01*
D02*
X4504Y1788D02*
X4590Y1872D01*
D02*
X4684Y826D02*
X4860Y923D01*
D02*
X4905Y1787D02*
X5001Y1873D01*
D02*
X5109Y826D02*
X5285Y923D01*
D02*
X5548Y826D02*
X5724Y923D01*
D02*
X4582Y1692D02*
X4214Y1692D01*
D02*
X4857Y737D02*
X4464Y737D01*
G54D29*
D02*
X4989Y1692D02*
X4644Y1692D01*
D02*
X5276Y737D02*
X4919Y737D01*
G54D27*
D02*
X5051Y1692D02*
X5394Y1692D01*
D02*
X5339Y737D02*
X5721Y737D01*
G54D29*
D02*
X5872Y1276D02*
X5909Y1294D01*
D02*
X5837Y824D02*
X5872Y1276D01*
D02*
X5773Y761D02*
X5837Y824D01*
G54D27*
D02*
X5751Y473D02*
X5645Y346D01*
D02*
X5749Y708D02*
X5751Y473D01*
G54D28*
D02*
X4261Y2346D02*
X3974Y2716D01*
D02*
X4474Y2353D02*
X4370Y2709D01*
D02*
X4696Y2353D02*
X4799Y2709D01*
D02*
X4910Y2346D02*
X5194Y2716D01*
D02*
X5944Y2321D02*
X5945Y2335D01*
D02*
X5539Y2173D02*
X5244Y2173D01*
D02*
X5607Y2173D02*
X5539Y2173D01*
D02*
X5244Y2173D02*
X5113Y2043D01*
D02*
X6019Y2173D02*
X5607Y2173D01*
D02*
X6074Y2296D02*
X6019Y2173D01*
D02*
X6074Y2619D02*
X6074Y2296D01*
D02*
X6019Y2631D02*
X6074Y2619D01*
G54D27*
D02*
X5524Y1506D02*
X5713Y1509D01*
D02*
X4209Y1506D02*
X5524Y1506D01*
D02*
X3842Y1938D02*
X3878Y1704D01*
D02*
X3878Y1704D02*
X4209Y1506D01*
D02*
X3784Y1981D02*
X3842Y1938D01*
G54D29*
D02*
X3809Y2824D02*
X3792Y2816D01*
D02*
X4109Y2850D02*
X3809Y2824D01*
D02*
X4135Y2784D02*
X4109Y2850D01*
D02*
X4483Y2850D02*
X4536Y2779D01*
D02*
X4109Y2850D02*
X4483Y2850D01*
G54D28*
D02*
X5299Y2560D02*
X5397Y2714D01*
D02*
X5300Y2310D02*
X5299Y2560D01*
D02*
X5035Y2849D02*
X5021Y2790D01*
D02*
X5409Y2849D02*
X5035Y2849D01*
D02*
X5416Y2791D02*
X5409Y2849D01*
D02*
X5300Y2310D02*
X5125Y2314D01*
G54D27*
D02*
X3730Y2799D02*
X3690Y2799D01*
G54D30*
D02*
G04 End of Copper0*
M02*